<?xml version="1.0" encoding="utf-8"?>
<!-- Generator: Adobe Illustrator 28.3.0, SVG Export Plug-In . SVG Version: 6.00 Build 0)  -->
<svg version="1.1" id="Layer_1" xmlns="http://www.w3.org/2000/svg" xmlns:xlink="http://www.w3.org/1999/xlink" x="0px" y="0px"
	 viewBox="0 0 86 71" style="enable-background:new 0 0 86 71;" xml:space="preserve">
<style type="text/css">
	.st0{fill:none;stroke:#62E0D9;stroke-width:2.8346;stroke-linecap:round;stroke-linejoin:round;}
	.st1{fill:#181F2B;stroke:#62E0D9;stroke-width:2.8346;stroke-linejoin:round;}
	.st2{fill:#181F2B;stroke:#62E0D9;stroke-width:2.8346;stroke-linecap:round;stroke-linejoin:round;}
</style>
<path class="st0" d="M33.9,11.3v2C33.9,13.4,33.9,11.3,33.9,11.3z"/>
<path class="st0" d="M33.9,51.9v2V51.9z"/>
<path class="st0" d="M54.2,33.6h-2H54.2z"/>
<polygon class="st0" points="13.6,33.6 11.6,33.6 13.6,33.6 "/>
<path class="st0" d="M56,11.3C50.3,5.1,42,1.2,32.9,1.2C15.5,1.2,1.4,15.3,1.4,32.6s14.1,31.4,31.5,31.4S64.4,50,64.4,32.6
	c0-6-1.7-11.6-4.6-16.4C59.7,16.2,56,11.3,56,11.3z"/>
<path class="st0" d="M51.7,15.6C46.9,10.3,40,7.3,32.9,7.3c-14,0-25.4,11.3-25.4,25.3c0,14,11.4,25.3,25.4,25.3s25.4-11.3,25.4-25.3
	c0-4.3-1.1-8.4-3-12C55.3,20.7,51.7,15.6,51.7,15.6z"/>
<path class="st1" d="M55.4,40.5c0,2.5-2,4.5-4.5,4.5c-2.5,0-4.5-2-4.5-4.5c0-2.5,2-4.5,4.5-4.5C53.4,36,55.4,38,55.4,40.5
	C55.4,40.5,55.4,40.5,55.4,40.5z"/>
<path class="st2" d="M50.9,45c-1.9,0-3.6,0.6-4.8,1.2c-1.2,0.6-1.9,1.7-1.9,3v7c0,1.2,1,2.2,2.2,2.2v9c0,1.2,1,2.2,2.2,2.2h0h4.5
	c1.2,0,2.2-1,2.2-2.2c0,0,0,0,0,0v-9c1.2,0,2.2-1,2.2-2.2v-7c0-1.3-0.7-2.5-1.9-3C54.5,45.6,52.8,45,50.9,45L50.9,45z"/>
<path class="st1" d="M68.9,40.5c0,2.5-2,4.5-4.5,4.5c-2.5,0-4.5-2-4.5-4.5c0,0,0,0,0,0c0-2.5,2-4.5,4.5-4.5
	C66.8,36,68.9,38,68.9,40.5C68.9,40.5,68.9,40.5,68.9,40.5L68.9,40.5z"/>
<path class="st2" d="M64.4,45c-1.9,0-3.6,0.6-4.8,1.2c-1.2,0.6-1.9,1.7-1.9,3v7c0,1.2,1,2.2,2.2,2.2l0,0v9c0,1.2,1,2.2,2.2,2.2h4.5
	c1.2,0,2.2-1,2.2-2.2v-9c1.2,0,2.2-1,2.2-2.2v0v-7c0-1.3-0.7-2.5-1.9-3C68,45.6,66.3,45,64.4,45L64.4,45z"/>
<path class="st1" d="M82.4,40.5c0,2.5-2,4.5-4.5,4.5c-2.5,0-4.5-2-4.5-4.5c0,0,0,0,0,0c0-2.5,2-4.5,4.5-4.5
	C80.3,36,82.3,38,82.4,40.5C82.4,40.5,82.4,40.5,82.4,40.5z"/>
<path class="st2" d="M77.9,45c-1.9,0-3.6,0.6-4.8,1.2c-1.2,0.6-1.9,1.7-1.9,3v7c0,1.2,1,2.2,2.2,2.2l0,0v9c0,1.2,1,2.2,2.2,2.2h4.5
	c1.2,0,2.2-1,2.2-2.2v-9c1.2,0,2.2-1,2.2-2.2v-7c0-1.3-0.7-2.5-1.9-3C81.5,45.6,79.8,45,77.9,45L77.9,45z"/>
<path class="st2" d="M32.9,41.8c-0.8,0-1.6-0.3-2.2-0.9L17.6,27.8l4.3-4.3l10.9,10.9L60.2,7.2l4.3,4.3L35,40.9
	C34.5,41.4,33.7,41.8,32.9,41.8L32.9,41.8z"/>
</svg>
