<?xml version="1.0" encoding="utf-8"?>
<!-- Generator: Adobe Illustrator 28.3.0, SVG Export Plug-In . SVG Version: 6.00 Build 0)  -->
<svg version="1.1" id="Layer_1" xmlns="http://www.w3.org/2000/svg" xmlns:xlink="http://www.w3.org/1999/xlink" x="0px" y="0px"
	 viewBox="0 0 83 78" style="enable-background:new 0 0 83 78;" xml:space="preserve">
<style type="text/css">
	.st0{fill:#62E0D9;}
	.st1{fill-rule:evenodd;clip-rule:evenodd;fill:#62E0D9;}
	.st2{fill-rule:evenodd;clip-rule:evenodd;fill:#181F2B;}
	.st3{fill-rule:evenodd;clip-rule:evenodd;fill:#FFFFFF;stroke:#62E0D9;stroke-width:1.458;}
	.st4{fill:none;stroke:#62E0D9;stroke-width:1.01;}
	.st5{fill-rule:evenodd;clip-rule:evenodd;fill:#FFFFFF;}
</style>
<g>
	<path class="st0" d="M74.9,0L1.4,0C0.6,0,0,0.6,0,1.4v52.9c0,0.8,0.6,1.4,1.4,1.4h21.7v6.8h-3.7c-0.8,0-1.4,0.6-1.4,1.4v5.9
		c0,0.8,0.6,1.4,1.4,1.4H57c0.8,0,1.4-0.6,1.4-1.4v-5.9c0-0.8-0.6-1.4-1.4-1.4h-3.7v-6.8h21.7c0.8,0,1.4-0.6,1.4-1.4V1.4
		C76.3,0.6,75.7,0,74.9,0z M51.8,65.3h3.7v3.1H20.8v-3.1h3.7c0.8,0,1.4-0.6,1.4-1.4v-8.2h24.5v8.2C50.4,64.7,51.1,65.3,51.8,65.3z
		 M73.5,45.4v7.5H2.8v-7.5H73.5z M73.5,2.8v39.7H2.8V2.8H73.5z"/>
	<path class="st1" d="M38.5,47c-1.2,0-2.1,0.9-2.1,2.1c0,1.2,0.9,2.1,2.1,2.1c1.2,0,2.1-0.9,2.1-2.1C40.6,47.9,39.7,47,38.5,47"/>
	<g transform="translate(55.377 23.07)">
		<g>
			<path class="st2" d="M3,0.7h20.7c1.4,0,2.5,1.1,2.5,2.5v47.9c0,1.4-1.1,2.5-2.5,2.5H3c-1.4,0-2.5-1.1-2.5-2.5V3.2
				C0.6,1.8,1.7,0.7,3,0.7z"/>
			<path class="st0" d="M23.7,54.9H3c-2.1,0-3.9-1.7-3.9-3.9V3.2C-0.8,1,0.9-0.7,3-0.7h20.7c2.1,0,3.9,1.7,3.9,3.9v47.9
				C27.6,53.2,25.9,54.9,23.7,54.9z M3,2.1c-0.6,0-1,0.5-1,1v47.9c0,0.6,0.5,1,1,1h20.7c0.6,0,1-0.5,1-1V3.2c0-0.6-0.5-1-1-1H3z"/>
		</g>
		<path class="st3" d="M0.5,6.5h25.8v1H0.5V6.5z M0.5,44.4h25.8v1H0.5V44.4z"/>
		<ellipse class="st4" cx="12.8" cy="49" rx="1.2" ry="1.2"/>
	</g>
	<g>
		<path class="st1" d="M46.6,14.2h-0.2l-5.2,2.1l-5.9-2.1l-5.5,1.9c-0.2,0.1-0.4,0.2-0.4,0.5v14.9c0,0.3,0.2,0.5,0.5,0.5H30l5.2-2.1
			l5.9,2.1l5.5-1.9c0.2-0.1,0.4-0.3,0.4-0.5V14.7C47,14.4,46.8,14.2,46.6,14.2z M41.1,29l-5.9-2V15.7l5.9,2L41.1,29L41.1,29z"/>
		<path class="st5" d="M31.6,14.2c-1.3,0-2.4,0.9-2.4,2.1c0,1.5,2.4,3.8,2.4,3.8s2.4-2.3,2.4-3.8C34,15.2,33,14.2,31.6,14.2
			L31.6,14.2z M31.6,17.2c-0.5,0-0.9-0.4-0.9-0.8s0.4-0.8,0.9-0.8c0.5,0,0.9,0.4,0.9,0.8C32.5,16.8,32.1,17.2,31.6,17.2z"/>
	</g>
</g>
</svg>
