<?xml version="1.0" encoding="utf-8"?>
<!-- Generator: Adobe Illustrator 28.3.0, SVG Export Plug-In . SVG Version: 6.00 Build 0)  -->
<svg version="1.1" id="Layer_1" xmlns="http://www.w3.org/2000/svg" xmlns:xlink="http://www.w3.org/1999/xlink" x="0px" y="0px"
	 viewBox="0 0 70 88" style="enable-background:new 0 0 70 88;" xml:space="preserve">
<style type="text/css">
	.st0{fill:none;stroke:#62E0D9;stroke-width:2.8346;}
</style>
<g>
	<path class="st0" d="M44,35.5L31.8,48l-9-9.2l-4.5,4.6l13.5,13.8l20.6-21l-4.5-4.6L44,35.5z"/>
	<path class="st0" d="M57.2,9.9c-5.3,0-10.7-1.1-15.5-3.5C39.4,5.3,37,3.8,35,2.1c-2,1.8-4.4,3.2-6.7,4.3
		c-4.8,2.3-10.1,3.5-15.5,3.5H2.2v40.6c0,7.1,2.8,13.9,7.8,18.9C17.4,76.6,35,86,35,86s17.6-9.4,25-16.7c5-4.9,7.8-11.8,7.8-18.9
		V9.9C67.8,9.9,57.2,9.9,57.2,9.9z"/>
	<path class="st0" d="M59.2,24.5v26.2c0,4.7-1.9,9.3-5.2,12.6c-4.6,4.5-15.1,10.8-19,13c-3.9-2.2-14.4-8.5-19-13
		c-3.3-3.3-5.2-7.9-5.2-12.6V18.9h2c6.7,0,13.3-1.5,19.2-4.3c1-0.5,2-1,3-1.6c1,0.6,2,1.1,3.1,1.6c5.8,2.8,12.4,4.3,19.1,4.3h2V24.5
		z"/>
</g>
</svg>
