<?xml version="1.0" encoding="utf-8"?>
<!-- Generator: Adobe Illustrator 28.3.0, SVG Export Plug-In . SVG Version: 6.00 Build 0)  -->
<svg version="1.1" id="Layer_1" xmlns="http://www.w3.org/2000/svg" xmlns:xlink="http://www.w3.org/1999/xlink" x="0px" y="0px"
	 viewBox="0 0 91 64" style="enable-background:new 0 0 91 64;" xml:space="preserve">
<style type="text/css">
	.st0{fill:none;stroke:#62E0D9;stroke-width:2.8346;stroke-linecap:round;stroke-linejoin:round;}
	.st1{fill-rule:evenodd;clip-rule:evenodd;fill:#62E0D9;}
	.st2{fill:none;stroke:#FFFFFF;stroke-width:0.803;stroke-linejoin:round;}
	.st3{fill:none;stroke:#FFFFFF;stroke-width:0.803;stroke-linecap:round;stroke-linejoin:round;}
	.st4{fill:none;stroke:#FFFFFF;stroke-width:0.65;stroke-linecap:round;stroke-linejoin:round;}
</style>
<g>
	<path class="st0" d="M85.6,59c2.4,0,4.4-1.9,4.4-4.1V9.2c0-1.5-1.3-2.8-2.9-2.8L85.6,59L85.6,59z M15,12v40c0,3.8,3.1,6.9,6.9,6.9
		h63.7c-2.3,0-4.1-1.9-4.2-4.1c0,0,0,0,0,0V3.8c0-1.5-1.2-2.8-2.8-2.8H62.1l-5.5,8.3H17.8C16.2,9.3,15,10.5,15,12z"/>
	<path class="st1" d="M41.3,27.6v3.2c0,1.1,0.8,1.9,1.9,1.9h3.1 M48.8,32.7v-0.2c0-0.7-0.3-1.3-0.7-1.8l-4.8-4.9
		c-0.5-0.5-1.1-0.7-1.8-0.8h-14c-1.4,0-2.5,1.1-2.5,2.6v26.9c0,1.4,1.1,2.6,2.5,2.6h18.8c1.4,0,2.5-1.1,2.5-2.6v-9"/>
	<path class="st2" d="M33.8,49.3v3.8h3.8L49.4,41l-3.8-3.8L33.8,49.3L33.8,49.3z M49.4,41l1.3-1.4c0.7-0.8,0.7-2,0-2.7l-1.1-1.1
		c-0.7-0.7-1.9-0.8-2.6,0c0,0,0,0,0,0l-1.3,1.4L49.4,41z"/>
	<path class="st3" d="M30,37.8h12.5 M30,41.6h11.3 M30,45.5h7.5"/>
	<g>
		<path class="st1" d="M32.4,59.4c0,2-1.6,3.6-3.6,3.6H3.6c-2,0-3.6-1.6-3.6-3.6V41.6c0-2,1.6-3.6,3.6-3.6h25.2c2,0,3.6,1.6,3.6,3.6
			V59.4z M10.8,44.5c0,1.6-1.3,3-3,3c-1.6,0-3-1.3-3-3c0-1.6,1.3-3,3-3c0,0,0,0,0,0C9.4,41.6,10.8,42.9,10.8,44.5
			C10.8,44.5,10.8,44.5,10.8,44.5z"/>
		<path class="st4" d="M26.8,58.7l-7-7.5l-2.9,3.1L12.7,50l-8.2,8.7"/>
	</g>
</g>
</svg>
