<svg width="32" height="32" viewBox="0 0 32 32" fill="none" xmlns="http://www.w3.org/2000/svg">
<path d="M16 10.2613C17.8691 10.2613 18.0905 10.2684 18.8286 10.3021C19.5111 10.3332 19.8817 10.4473 20.1284 10.5431C20.4551 10.6701 20.6883 10.8218 20.9333 11.0667C21.1782 11.3117 21.3299 11.5449 21.4569 11.8716C21.5527 12.1183 21.6668 12.4889 21.6979 13.1714C21.7316 13.9095 21.7387 14.1309 21.7387 16C21.7387 17.8691 21.7316 18.0905 21.6979 18.8286C21.6668 19.5111 21.5527 19.8817 21.4569 20.1284C21.3299 20.4551 21.1782 20.6884 20.9333 20.9333C20.6883 21.1782 20.4551 21.3299 20.1284 21.4569C19.8817 21.5528 19.5111 21.6668 18.8286 21.698C18.0906 21.7316 17.8692 21.7387 16 21.7387C14.1308 21.7387 13.9094 21.7316 13.1714 21.698C12.4889 21.6668 12.1183 21.5528 11.8716 21.4569C11.5449 21.3299 11.3116 21.1782 11.0667 20.9333C10.8218 20.6884 10.6701 20.4551 10.5431 20.1284C10.4472 19.8817 10.3332 19.5111 10.302 18.8286C10.2684 18.0905 10.2613 17.8691 10.2613 16C10.2613 14.1309 10.2684 13.9095 10.302 13.1714C10.3332 12.4889 10.4472 12.1183 10.5431 11.8716C10.6701 11.5449 10.8218 11.3117 11.0667 11.0667C11.3116 10.8218 11.5449 10.6701 11.8716 10.5431C12.1183 10.4473 12.4889 10.3332 13.1714 10.3021C13.9095 10.2684 14.1309 10.2613 16 10.2613ZM16 9C14.0989 9 13.8605 9.00806 13.1139 9.04212C12.3688 9.07614 11.86 9.19445 11.4147 9.3675C10.9544 9.54639 10.564 9.78575 10.1749 10.1749C9.78572 10.564 9.54637 10.9544 9.36748 11.4147C9.19442 11.86 9.07611 12.3688 9.0421 13.1139C9.00803 13.8605 9 14.0989 9 16C9 17.9011 9.00803 18.1395 9.0421 18.8861C9.07611 19.6312 9.19442 20.14 9.36748 20.5853C9.54637 21.0456 9.78572 21.436 10.1749 21.8251C10.564 22.2143 10.9544 22.4536 11.4147 22.6325C11.86 22.8056 12.3688 22.9239 13.1139 22.9579C13.8605 22.992 14.0989 23 16 23C17.9011 23 18.1395 22.992 18.8861 22.9579C19.6312 22.9239 20.14 22.8056 20.5853 22.6325C21.0456 22.4536 21.436 22.2143 21.8251 21.8251C22.2143 21.436 22.4536 21.0456 22.6325 20.5853C22.8055 20.14 22.9239 19.6312 22.9579 18.8861C22.9919 18.1395 23 17.9011 23 16C23 14.0989 22.9919 13.8605 22.9579 13.1139C22.9239 12.3688 22.8055 11.86 22.6325 11.4147C22.4536 10.9544 22.2143 10.564 21.8251 10.1749C21.436 9.78575 21.0456 9.54639 20.5853 9.3675C20.14 9.19445 19.6312 9.07614 18.8861 9.04212C18.1395 9.00806 17.9011 9 16 9ZM16 12.4054C14.0147 12.4054 12.4054 14.0148 12.4054 16C12.4054 17.9853 14.0147 19.5946 16 19.5946C17.9852 19.5946 19.5946 17.9853 19.5946 16C19.5946 14.0148 17.9852 12.4054 16 12.4054ZM16 18.3334C14.7113 18.3334 13.6666 17.2887 13.6666 16C13.6666 14.7114 14.7113 13.6667 16 13.6667C17.2886 13.6667 18.3333 14.7114 18.3333 16C18.3333 17.2887 17.2886 18.3334 16 18.3334ZM20.5766 12.2634C20.5766 12.7273 20.2005 13.1034 19.7366 13.1034C19.2727 13.1034 18.8966 12.7273 18.8966 12.2634C18.8966 11.7995 19.2727 11.4234 19.7366 11.4234C20.2005 11.4234 20.5766 11.7995 20.5766 12.2634Z" fill="white"/>
<rect x="0.5" y="0.5" width="31" height="31" rx="15.5" stroke="white"/>
</svg>
