<svg width="32" height="32" viewBox="0 0 32 32" fill="none" xmlns="http://www.w3.org/2000/svg">
<path d="M14.2731 21.9716C19.8197 21.9716 22.8535 17.3762 22.8535 13.3912C22.8535 13.2606 22.8535 13.1307 22.8447 13.0007C23.4349 12.574 23.9443 12.0457 24.3493 11.4404C23.7989 11.6843 23.215 11.8442 22.6172 11.9149C23.2467 11.538 23.7179 10.9452 23.943 10.2469C23.351 10.5982 22.7034 10.8457 22.028 10.9789C21.5734 10.4954 20.972 10.1753 20.3171 10.068C19.6621 9.96074 18.99 10.0723 18.4049 10.3855C17.8197 10.6987 17.3541 11.1959 17.0801 11.8004C16.806 12.4049 16.7388 13.0828 16.8889 13.7293C15.6899 13.6692 14.517 13.3576 13.4463 12.8148C12.3755 12.2719 11.4309 11.51 10.6737 10.5784C10.2881 11.2423 10.17 12.0282 10.3434 12.7761C10.5169 13.524 10.9689 14.1777 11.6073 14.6041C11.1274 14.5898 10.658 14.4604 10.2386 14.2266V14.2648C10.2388 14.9611 10.4798 15.6358 10.9208 16.1746C11.3618 16.7134 11.9756 17.0831 12.658 17.221C12.2141 17.3421 11.7482 17.3598 11.2964 17.2727C11.4891 17.8719 11.8642 18.3959 12.3694 18.7714C12.8746 19.1469 13.4845 19.3552 14.1138 19.367C13.0459 20.2062 11.7268 20.6618 10.3686 20.6605C10.1286 20.66 9.88893 20.6455 9.6507 20.6169C11.0298 21.5019 12.6345 21.9714 14.2731 21.9692" fill="white"/>
<rect x="0.5" y="0.5" width="31" height="31" rx="15.5" stroke="white"/>
</svg>
